<svg xmlns="http://www.w3.org/2000/svg" width="15.861" height="15.892" viewBox="0 0 15.861 15.892">
  <path id="Icon_feather-phone" data-name="Icon feather-phone" d="M19.028,14.9v2.392a1.595,1.595,0,0,1-1.739,1.595,15.782,15.782,0,0,1-6.882-2.448,15.551,15.551,0,0,1-4.785-4.785A15.782,15.782,0,0,1,3.174,4.738,1.595,1.595,0,0,1,4.761,3H7.154A1.6,1.6,0,0,1,8.749,4.372a10.24,10.24,0,0,0,.558,2.241A1.6,1.6,0,0,1,8.948,8.3L7.935,9.308a12.76,12.76,0,0,0,4.785,4.785l1.013-1.013a1.6,1.6,0,0,1,1.683-.359,10.24,10.24,0,0,0,2.241.558A1.6,1.6,0,0,1,19.028,14.9Z" transform="translate(-3.168 -3)" fill="#fff"/>
</svg>
