<svg xmlns="http://www.w3.org/2000/svg" width="16.314" height="11.294" viewBox="0 0 16.314 11.294">
  <g id="Icon_ionic-ios-mail" data-name="Icon ionic-ios-mail" transform="translate(-3.375 -7.875)">
    <path id="Path_11335" data-name="Path 11335" d="M19.555,10.338l-4.22,4.3a.076.076,0,0,0,0,.11l2.953,3.145a.509.509,0,0,1,0,.722.511.511,0,0,1-.722,0l-2.941-3.133a.08.08,0,0,0-.114,0l-.718.729a3.157,3.157,0,0,1-2.251.949,3.221,3.221,0,0,1-2.3-.976l-.69-.7a.08.08,0,0,0-.114,0L5.5,18.612a.511.511,0,0,1-.722,0,.509.509,0,0,1,0-.722l2.953-3.145a.083.083,0,0,0,0-.11l-4.224-4.3a.077.077,0,0,0-.133.055v8.6A1.259,1.259,0,0,0,4.63,20.248h13.8a1.259,1.259,0,0,0,1.255-1.255v-8.6A.078.078,0,0,0,19.555,10.338Z" transform="translate(0 -1.079)" fill="#fff"/>
    <path id="Path_11336" data-name="Path 11336" d="M11.908,15.055a2.132,2.132,0,0,0,1.533-.643L19.594,8.15a1.232,1.232,0,0,0-.776-.275H5a1.224,1.224,0,0,0-.776.275l6.153,6.263A2.132,2.132,0,0,0,11.908,15.055Z" transform="translate(-0.376 0)" fill="#fff"/>
  </g>
</svg>
