<svg xmlns="http://www.w3.org/2000/svg" width="13.597" height="13.594" viewBox="0 0 13.597 13.594">
  <path id="Icon_awesome-instagram" data-name="Icon awesome-instagram" d="M6.795,5.549A3.485,3.485,0,1,0,10.28,9.034,3.48,3.48,0,0,0,6.795,5.549Zm0,5.751A2.266,2.266,0,1,1,9.06,9.034,2.27,2.27,0,0,1,6.795,11.3Zm4.441-5.894a.813.813,0,1,1-.813-.813A.811.811,0,0,1,11.235,5.407Zm2.308.825a4.023,4.023,0,0,0-1.1-2.848A4.049,4.049,0,0,0,9.6,2.285c-1.122-.064-4.486-.064-5.608,0a4.044,4.044,0,0,0-2.848,1.1,4.036,4.036,0,0,0-1.1,2.848c-.064,1.122-.064,4.486,0,5.608a4.023,4.023,0,0,0,1.1,2.848,4.054,4.054,0,0,0,2.848,1.1c1.122.064,4.486.064,5.608,0a4.023,4.023,0,0,0,2.848-1.1,4.049,4.049,0,0,0,1.1-2.848c.064-1.122.064-4.483,0-5.605Zm-1.45,6.81A2.294,2.294,0,0,1,10.8,14.334a14.981,14.981,0,0,1-4.007.273,15.1,15.1,0,0,1-4.007-.273A2.294,2.294,0,0,1,1.5,13.041a14.981,14.981,0,0,1-.273-4.007A15.1,15.1,0,0,1,1.5,5.028,2.294,2.294,0,0,1,2.788,3.735a14.981,14.981,0,0,1,4.007-.273,15.1,15.1,0,0,1,4.007.273,2.294,2.294,0,0,1,1.292,1.292,14.981,14.981,0,0,1,.273,4.007A14.972,14.972,0,0,1,12.094,13.041Z" transform="translate(0.005 -2.238)" fill="#fff"/>
</svg>
