<svg xmlns="http://www.w3.org/2000/svg" width="13.407" height="13.407" viewBox="0 0 13.407 13.407">
  <path id="Icon_awesome-linkedin-in" data-name="Icon awesome-linkedin-in" d="M3,13.408H.221V4.457H3ZM1.61,3.236A1.617,1.617,0,1,1,3.22,1.61,1.623,1.623,0,0,1,1.61,3.236ZM13.4,13.408H10.631V9.05c0-1.038-.021-2.37-1.445-2.37-1.445,0-1.667,1.128-1.667,2.3v4.432H4.742V4.457H7.408V5.678h.039a2.921,2.921,0,0,1,2.63-1.445c2.813,0,3.33,1.853,3.33,4.259v4.917Z" transform="translate(0 -0.001)" fill="#fff"/>
</svg>
