<svg xmlns="http://www.w3.org/2000/svg" width="12.808" height="16.647" viewBox="0 0 12.808 16.647">
  <path id="Icon_awesome-pinterest-p" data-name="Icon awesome-pinterest-p" d="M6.8.457C3.382.457,0,2.738,0,6.431c0,2.348,1.321,3.682,2.121,3.682.33,0,.52-.921.52-1.181,0-.31-.79-.971-.79-2.261A4.507,4.507,0,0,1,6.534,2.088c2.271,0,3.952,1.291,3.952,3.662,0,1.771-.71,5.093-3.012,5.093A1.481,1.481,0,0,1,5.934,9.382c0-1.261.881-2.481.881-3.782,0-2.208-3.132-1.808-3.132.861A3.918,3.918,0,0,0,4,8.152c-.46,1.981-1.4,4.933-1.4,6.974,0,.63.09,1.251.15,1.881.113.127.057.113.23.05,1.681-2.3,1.621-2.752,2.381-5.763a2.705,2.705,0,0,0,2.311,1.2c3.542,0,5.133-3.452,5.133-6.564C12.808,2.618,9.946.457,6.8.457Z" transform="translate(0 -0.457)" fill="#fff"/>
</svg>
