<svg xmlns="http://www.w3.org/2000/svg" width="20.921" height="12.395" viewBox="0 0 20.921 12.395">
  <path id="Icon_simple-tripadvisor" data-name="Icon simple-tripadvisor" d="M20.176,11.382A6.81,6.81,0,0,1,21.2,9.275H17.7a12.726,12.726,0,0,0-6.985-1.94A12.964,12.964,0,0,0,3.558,9.3H.279a6.72,6.72,0,0,1,1.02,2.08A5.235,5.235,0,0,0,9.6,17.75l1.111,1.67,1.125-1.688a5.1,5.1,0,0,0,1.922,1.517,5.238,5.238,0,0,0,7.1-6.578,5.074,5.074,0,0,0-.706-1.295l.017,0Zm-2.764,7.037a4.15,4.15,0,0,1-4.932-1.63,3.992,3.992,0,0,1-.438-.846,4.187,4.187,0,1,1,5.385,2.476h-.015Zm-8.428-1.6A4.181,4.181,0,1,1,9.7,14.48a3.784,3.784,0,0,1-.042.418,4.189,4.189,0,0,1-.677,1.936ZM2.863,14.425a2.589,2.589,0,1,0,2.592-2.584,2.593,2.593,0,0,0-2.592,2.584Zm10.5,0a2.586,2.586,0,1,0,2.587-2.584,2.589,2.589,0,0,0-2.587,2.584h0Zm-9.608,0a1.694,1.694,0,1,1-.013,0Zm10.489,0a1.692,1.692,0,1,1-.013,0ZM10.713,8.25a12.226,12.226,0,0,1,5.075,1.013,5.242,5.242,0,0,0-1.661.314A5.271,5.271,0,0,0,10.713,14.1,5.251,5.251,0,0,0,5.587,9.239a12.9,12.9,0,0,1,5.088-.989Z" transform="translate(-0.279 -7.335)" fill="#fff"/>
</svg>
