<svg xmlns="http://www.w3.org/2000/svg" width="55.39" height="54.074" viewBox="0 0 55.39 54.074">
  <path id="online-store-5258263" d="M182.067,17.5a3.943,3.943,0,0,0-3.961,3.954v2.637h-6.591a1.319,1.319,0,0,0-1.275,1l-2.061,8.229h51.511l-2.061-8.23a1.318,1.318,0,0,0-1.275-1h-6.6V21.454A3.933,3.933,0,0,0,205.8,17.5Zm0,2.64H205.8a1.319,1.319,0,0,1,1.324,1.313v5.275a1.318,1.318,0,0,1-1.324,1.324H182.067a1.325,1.325,0,0,1-1.324-1.324V21.453a1.319,1.319,0,0,1,1.324-1.313Zm-9.52,6.588h5.558a3.94,3.94,0,0,0,.582,2.07l-1.713,11.124h-7.727Zm37.2,0h5.569l3.3,13.2h-7.735l-1.7-11.13a3.967,3.967,0,0,0,.572-2.066Zm-28.67,3.841a3.966,3.966,0,0,0,.984.126h6.081l-.711,9.229h-7.794Zm27.142,9.355H200.43l-.711-9.229H205.8a3.988,3.988,0,0,0,.983-.126ZM190.789,30.7h6.285l.711,9.229h-7.706ZM167.517,35.96l-1.242,4.955a1.4,1.4,0,0,0-.039.386v2.573a6.581,6.581,0,0,0,3.951,6.053Zm50.159,13.963a6.6,6.6,0,0,0,3.951-6.048V41.3a2.063,2.063,0,0,0-.039-.386Zm-48.8-7.362h7.915v1.313a3.957,3.957,0,1,1-7.915,0Zm10.552,0h7.915v1.313a3.957,3.957,0,1,1-7.915,0Zm10.542,0h7.915v1.313a3.958,3.958,0,1,1-7.915,0Zm10.552,0h7.915v1.313a3.958,3.958,0,1,1-7.915,0Zm10.552,0h7.915v1.313a3.957,3.957,0,1,1-7.915,0Zm-11.869,5.277a6.593,6.593,0,0,0,10.547,0,6.561,6.561,0,0,0,5.275,2.635v21.1H191.3V57.067a1.321,1.321,0,0,0-1.324-1.326h-13.18a1.321,1.321,0,0,0-1.324,1.326V71.573h-2.64v-21.1a6.586,6.586,0,0,0,5.277-2.635,6.6,6.6,0,0,0,10.55,0,6.6,6.6,0,0,0,10.552,0Zm-3.959,6.588a1.32,1.32,0,0,0-1.316,1.314V67.62a1.323,1.323,0,0,0,1.316,1.316h15.828a1.319,1.319,0,0,0,1.313-1.316V55.741a1.318,1.318,0,0,0-1.313-1.314Zm1.324,2.64h5.275V66.3h-5.275Zm7.912,0h5.267V66.3h-5.267ZM178.1,58.383h10.552v13.19H178.1Z" transform="translate(-166.237 -17.5)" fill="#fff"/>
</svg>
