<svg xmlns="http://www.w3.org/2000/svg" width="60.929" height="41.114" viewBox="0 0 60.929 41.114">
  <g id="members_3265979" transform="translate(-4.8 -19.5)">
    <path id="Path_11412" data-name="Path 11412" d="M17.673,19.5a8.223,8.223,0,0,0,0,16.446,8.146,8.146,0,0,0,5.8-2.426,13.3,13.3,0,0,1-.27-2.359,11.763,11.763,0,0,1,2.022-6.605A8.3,8.3,0,0,0,17.673,19.5Zm35.183.067a8.36,8.36,0,0,0-7.616,5.055,11.763,11.763,0,0,1,2.022,6.605,9.048,9.048,0,0,1-.27,2.359,8.2,8.2,0,0,0,14.019-5.8A8.113,8.113,0,0,0,52.856,19.567ZM35.265,23a8.223,8.223,0,1,0,8.223,8.223A8.256,8.256,0,0,0,35.265,23ZM17.673,37.428A12.916,12.916,0,0,0,4.8,50.3v4.988a1.884,1.884,0,0,0,1.887,1.887h11.93V53.739a16.412,16.412,0,0,1,7.212-13.345A12.5,12.5,0,0,0,17.673,37.428Zm35.183,0A12.864,12.864,0,0,0,44.7,40.394a16.412,16.412,0,0,1,7.212,13.345v3.437h11.93a1.884,1.884,0,0,0,1.887-1.887V50.3A12.872,12.872,0,0,0,52.856,37.428ZM35.265,40.866A12.916,12.916,0,0,0,22.391,53.739v4.988a1.884,1.884,0,0,0,1.887,1.887h21.9a1.884,1.884,0,0,0,1.887-1.887h0V53.739A12.772,12.772,0,0,0,35.265,40.866Z" fill="#fff"/>
  </g>
</svg>
