<svg xmlns="http://www.w3.org/2000/svg" width="39.769" height="43.615" viewBox="0 0 39.769 43.615">
  <g id="museum-2839668" transform="translate(-174.48 -87.498)">
    <path id="Path_11397" data-name="Path 11397" d="M429.163,113.959a1.988,1.988,0,0,1-1.983-1.982v-5a1.983,1.983,0,0,1,3.965,0v5A1.988,1.988,0,0,1,429.163,113.959Z" transform="translate(-224.073 -15.517)" fill="#fff"/>
    <path id="Path_11398" data-name="Path 11398" d="M176.463,131.115a1.988,1.988,0,0,1-1.982-1.982V89.482a1.988,1.988,0,0,1,1.982-1.982h35.8a1.983,1.983,0,0,1,0,3.965H178.445v37.668A1.988,1.988,0,0,1,176.463,131.115Z" transform="translate(0 -0.002)" fill="#fff"/>
    <path id="Path_11399" data-name="Path 11399" d="M254.064,183.754h-29.3l-1.982-1.982V151.083l1.982-1.983h29.321l1.983,1.983v30.689Zm-27.319-3.965H252.1V153.065H226.744Z" transform="translate(-42.828 -54.623)" fill="#fff"/>
    <path id="Path_11400" data-name="Path 11400" d="M271.133,98.442a1.988,1.988,0,0,1-1.983-1.982V89.48a1.982,1.982,0,1,1,3.965,0v6.979A1.988,1.988,0,0,1,271.133,98.442Z" transform="translate(-83.945)" fill="#fff"/>
    <path id="Path_11401" data-name="Path 11401" d="M309.852,239.423H293.12v-1.8l8.346-3.469,8.386,3.469Z" transform="translate(-105.2 -130.038)" fill="#fff"/>
    <path id="Path_11402" data-name="Path 11402" d="M312.849,289.9h-.158a1.193,1.193,0,0,1-1.19-1.189v-6.82a1.193,1.193,0,0,1,1.19-1.19h.158a1.193,1.193,0,0,1,1.19,1.19v6.82A1.193,1.193,0,0,1,312.849,289.9Z" transform="translate(-121.499 -171.316)" fill="#fff"/>
    <path id="Path_11403" data-name="Path 11403" d="M357.129,289.9h-.158a1.193,1.193,0,0,1-1.19-1.189v-6.82a1.193,1.193,0,0,1,1.19-1.19h.158a1.193,1.193,0,0,1,1.19,1.19v6.82A1.193,1.193,0,0,1,357.129,289.9Z" transform="translate(-160.763 -171.316)" fill="#fff"/>
    <path id="Path_11404" data-name="Path 11404" d="M401.4,289.9h-.158a1.193,1.193,0,0,1-1.189-1.189v-6.82a1.193,1.193,0,0,1,1.189-1.19h.158a1.193,1.193,0,0,1,1.19,1.19v6.82A1.18,1.18,0,0,1,401.4,289.9Z" transform="translate(-200.018 -171.316)" fill="#fff"/>
    <path id="Path_11405" data-name="Path 11405" d="M301.35,348.719v-.158a1.193,1.193,0,0,1,1.189-1.19h12.469a1.193,1.193,0,0,1,1.189,1.19v.158a1.193,1.193,0,0,1-1.189,1.19H302.539A1.193,1.193,0,0,1,301.35,348.719Z" transform="translate(-112.497 -230.434)" fill="#fff"/>
  </g>
</svg>
