<svg xmlns="http://www.w3.org/2000/svg" width="53.98" height="50.636" viewBox="0 0 53.98 50.636">
  <g id="room-2170343" transform="translate(0 -4.002)">
    <path id="Path_11395" data-name="Path 11395" d="M52.924,4.06,46.3,6.533H7.709L1.089,4.06A.844.844,0,0,0,0,4.554L.076,47.067a.873.873,0,0,0,1.165.27L7.8,43.244H9.705l-.844,2.241a1.426,1.426,0,0,0-.051.5v2.954A1.688,1.688,0,0,0,10.5,50.629h.422v1.477a2.532,2.532,0,1,0,5.064,0V50.629H27.85v1.477a2.532,2.532,0,1,0,5.064,0V50.629h.422a1.688,1.688,0,0,0,1.688-1.688V45.987a1.418,1.418,0,0,0-.051-.5l-.793-2.241h1.688V44.51A1.688,1.688,0,0,0,37.555,46.2h4.22a1.688,1.688,0,0,0,1.688-1.688V43.244H46.18l6.557,4.093c.38.236,1.241.173,1.241-.3V4.554C54.012,4.085,53.362,3.9,52.924,4.06Zm-38.6,48.046a.844.844,0,1,1-1.688,0V50.629h1.688Zm16.9,0a.844.844,0,0,1-1.688,0V50.629h1.688ZM10.883,44.932l2.169-5.908h2.11v.844a.844.844,0,0,0,.844.844h4.249a.844.844,0,0,0,.844-.844v-.844h1.688v.844a.844.844,0,0,0,.844.844h4.22a.844.844,0,0,0,.844-.844v-.844H30.8l2.169,5.908ZM27.85,35.649H23.63a.844.844,0,0,0-.844.844v.844H21.1v-.844a.844.844,0,0,0-.844-.844h-4.22a.844.844,0,0,0-.844.844v.844H13.5V33.961H30.382v3.376H28.694v-.844A.844.844,0,0,0,27.85,35.649Zm9.705,4.22V38.181h4.22v1.688Zm8.017,1.688h-2.11V38.181a1.688,1.688,0,0,0-1.688-1.688H40.509V35.227h2.532a.844.844,0,0,0,.755-1.219l-2.11-4.22a.844.844,0,0,0-.726-.468H38.4a.844.844,0,0,0-.755.468l-2.11,4.22a.844.844,0,0,0,.755,1.219h2.532v1.266H37.555a1.688,1.688,0,0,0-1.688,1.688v3.376H33.547L32.2,37.89a.844.844,0,0,0-.122-.219V33.961a1.688,1.688,0,0,0-1.688-1.688H13.478a1.688,1.688,0,0,0-1.688,1.688V37.67a.844.844,0,0,0-.122.219l-1.35,3.667H8.4V8.221H45.607Zm-7.9-8.017,1.266-2.532h1.5L41.7,33.539Z" fill="#fff"/>
    <path id="Path_11396" data-name="Path 11396" d="M38.844,25.6h2.772l.118.422a1.688,1.688,0,0,0,1.633,1.266H54.6a1.688,1.688,0,0,0,1.633-1.266l.118-.422H59.1a.844.844,0,0,0,.844-.844V18.844A.844.844,0,0,0,59.1,18H38.844a.844.844,0,0,0-.844.844v5.908A.844.844,0,0,0,38.844,25.6Zm16.229-1.688L54.617,25.6H43.346l-.46-1.688Z" transform="translate(-21.965 -8.091)" fill="#fff"/>
  </g>
</svg>
