<svg id="Group_161" data-name="Group 161" xmlns="http://www.w3.org/2000/svg" width="59.492" height="56.763" viewBox="0 0 59.492 56.763">
  <path id="Path_11382" data-name="Path 11382" d="M21.285,2.525a18.182,18.182,0,0,0-1.852,3.506c-.6,1.257-1.4,3.144-2.033,4.241-2.52,4.424-6.732,1.305-9.456-.536A35.216,35.216,0,0,0,3.977,7.18,2.434,2.434,0,0,0,1.02,10.391c.4,1.039,2.535,2.225,3.672,3.05l5.873,4.08c.4.273.436.916.563,1.38.678,2.466,1.637,5.647,2.158,7.956.786,3.45,3.341,13.613,3.789,17.657.337,4.951,5.479,4.631,5.017-.4-.419-4.555-2.708-12.627-3.2-14.878l.971-.219c.832,2.426,3.482,11.814,5.752,15.475,2.017,3.249,5.043.794,4.207-1.929-1.719-4.5-3.333-9.152-4.86-13.783-.48-1.439-.948-2.89-1.41-4.333l-.423-1.281c-.534-2.3-1.514-5.655-2.189-8.1-.238-.848,1.738-4.478,2.3-5.67.745-1.58,2.2-3.272,2.451-4.763.374-2.226-2.582-3.73-4.412-2.117h0Z" transform="translate(-0.853 8.7)" fill="#fff" fill-rule="evenodd"/>
  <path id="Path_11383" data-name="Path 11383" d="M8.726,4.541A3.638,3.638,0,0,0,4.28,2,3.588,3.588,0,0,0,1.714,6.4,3.636,3.636,0,0,0,6.161,8.944a3.587,3.587,0,0,0,2.565-4.4h0Z" transform="translate(6.906 8.977)" fill="#fff" fill-rule="evenodd"/>
  <path id="Path_11384" data-name="Path 11384" d="M12.131,1.752A18.022,18.022,0,0,1,13.982,5.26c.6,1.254,1.411,3.144,2.036,4.238,2.524,4.428,6.736,1.309,9.452-.532a36.164,36.164,0,0,1,3.974-2.554,2.43,2.43,0,0,1,2.956,3.2c-.4,1.039-2.539,2.231-3.673,3.053l-5.87,4.081c-.4.273-.433.919-.565,1.38-.675,2.469-1.634,5.648-2.159,7.951C19.353,29.537,16.8,39.7,16.343,43.744c-.333,4.95-5.473,4.631-5.013-.391.421-4.555,2.71-12.63,3.193-14.881l-.961-.216c-.839,2.419-3.489,11.811-5.759,15.468-2.014,3.252-5.04.8-4.21-1.927,2.26-5.912,4.332-12.059,6.273-18.109l.427-1.282c.534-2.3,1.514-5.652,2.189-8.092.23-.848-1.745-4.479-2.3-5.679-.748-1.579-2.205-3.27-2.458-4.762-.376-2.231,2.582-3.728,4.407-2.12h0Z" transform="translate(26.559 0.576)" fill="#fff" fill-rule="evenodd"/>
  <path id="Path_11385" data-name="Path 11385" d="M4.734,3.771A3.629,3.629,0,0,1,9.181,1.23a3.591,3.591,0,0,1,2.573,4.4A3.639,3.639,0,0,1,7.3,8.169a3.587,3.587,0,0,1-2.566-4.4h0Z" transform="translate(38.755 0.853)" fill="#fff" fill-rule="evenodd"/>
  <line id="Line_43" data-name="Line 43" x1="1.387" y2="1.709" transform="translate(22.949 4.806)" fill="none"/>
  <path id="Path_11386" data-name="Path 11386" d="M5.005,2.063a.46.46,0,0,0-.715-.581L2.9,3.191a.46.46,0,0,0,.715.581Z" transform="translate(19.688 3.033)" fill="#fff"/>
  <line id="Line_44" data-name="Line 44" x2="1.39" y2="1.711" transform="translate(13.804 4.599)" fill="none"/>
  <path id="Path_11387" data-name="Path 11387" d="M2.827,1.464a.46.46,0,1,0-.715.581L3.5,3.756a.46.46,0,1,0,.715-.581Z" transform="translate(11.335 2.844)" fill="#fff"/>
  <line id="Line_45" data-name="Line 45" x2="1.389" y2="1.71" transform="translate(30.389 8.326)" fill="none"/>
  <path id="Path_11388" data-name="Path 11388" d="M4.263,1.787a.46.46,0,1,0-.715.581l1.389,1.71A.46.46,0,1,0,5.652,3.5Z" transform="translate(26.483 6.248)" fill="#fff"/>
  <line id="Line_46" data-name="Line 46" x2="1.387" y2="1.708" transform="translate(4.39 6.672)" fill="none"/>
  <path id="Path_11389" data-name="Path 11389" d="M2.011,1.643a.46.46,0,1,0-.715.581L2.684,3.933A.46.46,0,0,0,3.4,3.352Z" transform="translate(2.736 4.737)" fill="#fff"/>
  <line id="Line_47" data-name="Line 47" x1="1.38" y2="1.707" transform="translate(29.611 0.461)" fill="none"/>
  <path id="Path_11390" data-name="Path 11390" d="M5.577,1.685a.461.461,0,1,0-.718-.577L3.479,2.815a.461.461,0,1,0,.718.577Z" transform="translate(25.772 -0.936)" fill="#fff"/>
  <line id="Line_48" data-name="Line 48" x1="1.387" y2="1.711" transform="translate(53.564 2.633)" fill="none"/>
  <path id="Path_11391" data-name="Path 11391" d="M7.656,1.875a.46.46,0,0,0-.715-.581L5.555,3.005a.46.46,0,0,0,.715.581Z" transform="translate(47.652 1.049)" fill="#fff"/>
  <line id="Line_49" data-name="Line 49" x1="1.388" y2="1.706" transform="translate(57.644 17.231)" fill="none"/>
  <path id="Path_11392" data-name="Path 11392" d="M8.011,3.139A.46.46,0,1,0,7.3,2.558L5.908,4.264a.46.46,0,0,0,.715.581Z" transform="translate(51.378 14.383)" fill="#fff"/>
  <line id="Line_50" data-name="Line 50" x1="1.389" y2="1.703" transform="translate(31.801 21.58)" fill="none"/>
  <path id="Path_11393" data-name="Path 11393" d="M5.774,3.516a.46.46,0,1,0-.715-.581L3.67,4.638a.46.46,0,0,0,.715.581Z" transform="translate(27.773 18.355)" fill="#fff"/>
  <line id="Line_51" data-name="Line 51" x2="1.384" y2="1.703" transform="translate(28.418 16.739)" fill="none"/>
  <path id="Path_11394" data-name="Path 11394" d="M4.092,2.515a.46.46,0,0,0-.715.581L4.762,4.8a.46.46,0,1,0,.715-.581Z" transform="translate(24.683 13.933)" fill="#fff"/>
</svg>
