<svg xmlns="http://www.w3.org/2000/svg" width="73.404" height="34.408" viewBox="0 0 73.404 34.408">
  <g id="toilet-4950888" transform="translate(-6.005 -29.38)">
    <path id="Path_11406" data-name="Path 11406" d="M59.244,63.788a.484.484,0,0,0,.484-.484V29.864a.484.484,0,1,0-.968,0V63.3a.484.484,0,0,0,.484.484Z" transform="translate(-8.75 0)" fill="#fff"/>
    <path id="Path_11407" data-name="Path 11407" d="M29.254,63.788a.484.484,0,0,0,.484-.484V29.864a.484.484,0,0,0-.968,0V63.3a.484.484,0,0,0,.484.484Z" transform="translate(-3.776 0)" fill="#fff"/>
    <g id="Group_164" data-name="Group 164" transform="translate(54.581 29.88)">
      <circle id="Ellipse_2" data-name="Ellipse 2" cx="3.745" cy="3.745" r="3.745" transform="translate(6.031)" fill="#fff"/>
      <path id="Path_11408" data-name="Path 11408" d="M90.273,62.285,87.478,51.441a1.2,1.2,0,0,0-1.159-.9H80.955L80.5,47.729h4.955a1.8,1.8,0,0,0,0-3.6H79.9l-.058-.359a3.975,3.975,0,0,0-4.137-3.328h0a3.981,3.981,0,0,0-3.553,5.288l2.861,8.166a1.2,1.2,0,0,0,1.134.8h7.824l2.461,8.625A1.989,1.989,0,0,0,88.863,64.7h0a1.994,1.994,0,0,0,1.418-2.419Z" transform="translate(-65.515 -31.714)" fill="#fff"/>
      <path id="Path_11409" data-name="Path 11409" d="M79.747,61.2a7.168,7.168,0,0,1-5,2.01,7.3,7.3,0,0,1-5.1-2.11,7.18,7.18,0,0,1-2.11-5.1,7.049,7.049,0,0,1,1.977-4.963,1.646,1.646,0,0,0-2.386-2.269,10.526,10.526,0,0,0-2.06,11.328,10.3,10.3,0,0,0,2.252,3.337,10.521,10.521,0,0,0,3.337,2.252,10.522,10.522,0,0,0,11.378-2.11,1.646,1.646,0,0,0-2.277-2.377Z" transform="translate(-64.24 -33.01)" fill="#fff"/>
    </g>
    <g id="Group_165" data-name="Group 165" transform="translate(30.622 29.88)">
      <path id="Path_11410" data-name="Path 11410" d="M51.009,53.561,48.782,43.326a3.8,3.8,0,0,0-3.7-2.986h-3.6a3.8,3.8,0,0,0-3.7,2.986L35.553,53.561A1.587,1.587,0,0,0,35.87,54.9a1.615,1.615,0,0,0,1.251.6h1.76a.528.528,0,0,1,.517.417L41.016,63.2a2.325,2.325,0,0,0,4.538,0l1.618-7.282a.528.528,0,0,1,.517-.417h1.76a1.6,1.6,0,0,0,1.251-.6,1.56,1.56,0,0,0,.317-1.343Z" transform="translate(-35.517 -31.698)" fill="#fff"/>
      <circle id="Ellipse_3" data-name="Ellipse 3" cx="3.745" cy="3.745" r="3.745" transform="translate(4.023)" fill="#fff"/>
    </g>
    <g id="Group_166" data-name="Group 166" transform="translate(6.005 29.88)">
      <path id="Path_11411" data-name="Path 11411" d="M20.507,41.626a2.91,2.91,0,0,0-2.419-1.276H8.945a2.937,2.937,0,0,0-2.736,4l4.5,11.72a.489.489,0,0,1,.033.192v6.006a2.769,2.769,0,1,0,5.539,0V56.257a.489.489,0,0,1,.033-.192l4.5-11.72a2.924,2.924,0,0,0-.317-2.719Z" transform="translate(-6.005 -31.7)" fill="#fff"/>
      <circle id="Ellipse_4" data-name="Ellipse 4" cx="3.745" cy="3.745" r="3.745" transform="translate(3.767)" fill="#fff"/>
    </g>
  </g>
</svg>
