<svg xmlns="http://www.w3.org/2000/svg" width="23.301" height="23.3" viewBox="0 0 23.301 23.3">
  <path id="Icon_awesome-linkedin-in" data-name="Icon awesome-linkedin-in" d="M5.216,23.3H.385V7.745H5.216ZM2.8,5.623A2.811,2.811,0,1,1,5.6,2.8,2.821,2.821,0,0,1,2.8,5.623ZM23.3,23.3h-4.82V15.728c0-1.8-.036-4.119-2.512-4.119-2.512,0-2.9,1.961-2.9,3.989v7.7H8.242V7.745h4.633V9.867h.068a5.076,5.076,0,0,1,4.571-2.512c4.889,0,5.788,3.219,5.788,7.4V23.3Z" transform="translate(0 -0.001)" fill="#fff"/>
</svg>
